<?xml version="1.0" standalone="no"?>
<!DOCTYPE svg PUBLIC "-//W3C//DTD SVG 20010904//EN"
 "http://www.w3.org/TR/2001/REC-SVG-20010904/DTD/svg10.dtd">
<svg version="1.0" xmlns="http://www.w3.org/2000/svg"
 width="580.000000pt" height="430.000000pt" viewBox="0 0 580.000000 430.000000"
 preserveAspectRatio="xMidYMid meet">

<g transform="translate(0.000000,430.000000) scale(0.100000,-0.100000)"
fill="#000000" stroke="none">
<path d="M1726 4134 c-9 -20 -63 -103 -119 -185 -164 -240 -247 -361 -327
-479 -41 -61 -110 -161 -152 -223 -43 -61 -78 -117 -78 -123 0 -6 40 -39 89
-72 66 -46 92 -58 99 -49 5 7 44 64 87 127 43 63 98 143 122 177 24 35 43 65
43 67 0 2 -19 7 -42 10 -65 10 -79 23 -35 31 73 14 147 -23 122 -60 -44 -64
-154 -226 -204 -298 -34 -48 -61 -90 -61 -92 0 -11 184 -125 192 -117 4 4 66
93 136 198 102 152 132 190 152 192 22 2 27 -4 42 -45 20 -56 16 -68 -7 -22
l-17 32 -19 -24 c-10 -13 -40 -55 -66 -94 -26 -38 -78 -114 -115 -167 -38 -54
-68 -101 -68 -105 1 -9 167 -123 179 -123 9 0 27 27 226 320 54 80 113 165
130 190 17 25 85 124 150 220 151 223 149 219 158 220 5 0 52 -30 105 -67 109
-76 219 -152 382 -263 60 -41 110 -77 110 -80 -1 -3 -42 -33 -93 -68 -115 -79
-389 -268 -702 -485 -132 -91 -304 -210 -383 -264 -79 -54 -172 -118 -207
-143 -35 -25 -110 -76 -166 -115 -56 -38 -137 -95 -180 -125 -43 -30 -115 -80
-159 -110 -184 -126 -451 -310 -539 -372 l-54 -38 106 0 107 0 0 -720 0 -720
160 0 160 0 0 220 0 220 425 0 425 0 2 -217 3 -218 33 -3 32 -3 0 255 0 256
-457 2 -458 3 -3 470 -2 470 167 113 c199 134 490 331 733 496 237 162 418
284 585 398 77 52 231 156 342 231 110 75 206 137 212 137 6 0 351 -226 768
-503 417 -277 894 -593 1060 -703 l302 -199 1 -712 0 -713 160 0 160 0 0 710
0 709 102 3 101 3 -84 57 c-46 31 -136 92 -199 135 -63 43 -205 140 -315 214
-110 75 -243 165 -295 201 -176 119 -685 465 -963 653 -105 72 -262 178 -347
236 -85 58 -197 134 -247 168 -51 35 -93 66 -93 71 0 9 101 81 515 364 61 41
153 104 204 140 l95 66 40 -24 c88 -50 173 -96 179 -96 4 0 -22 42 -57 94 -48
69 -62 96 -53 105 20 20 31 12 74 -52 22 -34 87 -129 142 -210 56 -82 101
-152 101 -157 0 -5 -40 -37 -90 -71 -49 -33 -90 -64 -90 -68 0 -17 53 -82 64
-78 7 3 50 30 96 61 45 31 85 56 89 56 3 0 25 -28 48 -63 152 -225 234 -343
246 -351 9 -6 28 0 55 18 l42 26 -67 98 c-156 230 -197 288 -210 303 -25 29
-13 45 77 104 49 33 90 63 90 68 0 4 -13 25 -29 47 l-28 39 -49 -32 c-27 -18
-69 -47 -93 -64 -24 -18 -47 -30 -52 -28 -4 3 -22 26 -39 52 -17 25 -55 80
-84 122 -116 167 -166 244 -166 256 0 7 7 15 15 19 10 4 34 -22 77 -85 73
-105 78 -101 54 50 -19 119 -19 121 -3 121 8 0 19 -51 34 -161 17 -116 29
-171 43 -193 l20 -31 -5 30 c-10 58 -34 241 -41 305 -7 62 -47 160 -66 160 -5
0 -32 -17 -61 -38 -29 -21 -101 -72 -161 -113 -60 -41 -145 -99 -190 -130 -44
-31 -160 -110 -256 -177 -96 -66 -224 -155 -285 -197 -60 -42 -158 -110 -218
-151 -85 -59 -111 -73 -125 -65 -9 5 -141 95 -292 200 -151 104 -385 265 -519
358 -134 92 -291 201 -349 241 -57 39 -107 72 -111 72 -4 0 -15 -16 -25 -36z
m191 -200 c2 -6 -42 -78 -97 -160 -56 -82 -116 -170 -133 -196 -42 -62 -74
-65 -104 -10 -26 47 -37 92 -23 92 6 0 19 -14 28 -31 35 -64 37 -65 58 -31 10
17 68 103 128 192 103 151 131 180 143 144z m223 -149 c9 -11 3 -26 -33 -77
-133 -190 -217 -320 -212 -328 4 -6 19 -10 36 -10 16 0 29 -5 29 -11 0 -7 -9
-9 -22 -5 -13 3 -37 6 -55 6 -22 0 -33 6 -38 19 -6 19 9 45 103 181 21 30 66
97 101 148 34 50 66 92 71 92 4 0 13 -7 20 -15z m-522 -322 c45 -37 51 -50 26
-60 -31 -12 -148 76 -137 102 7 20 58 0 111 -42z m96 -76 c8 -13 8 -20 -4 -27
-17 -10 -50 14 -50 37 0 20 40 12 54 -10z m81 -46 c66 -38 93 -67 76 -84 -25
-25 -164 74 -146 103 9 14 15 13 70 -19z"/>
<path d="M4460 3944 c0 -10 9 -79 20 -152 11 -74 20 -147 20 -163 0 -16 4 -29
9 -29 14 0 131 83 131 93 0 6 -155 240 -177 266 -1 2 -3 -4 -3 -15z"/>
<path d="M3923 3719 c15 -23 364 -225 373 -216 13 13 -49 56 -196 138 -198
110 -198 110 -177 78z"/>
<path d="M3997 3613 c53 -85 166 -243 174 -243 11 0 129 81 129 89 0 3 -35 25
-78 48 -42 23 -114 63 -160 89 -81 44 -82 45 -65 17z"/>
<path d="M4693 3477 c-35 -23 -63 -45 -63 -49 0 -3 55 -37 123 -74 67 -37 135
-76 150 -87 16 -10 30 -17 33 -14 6 5 -167 267 -176 266 -3 0 -33 -19 -67 -42z"/>
<path d="M4641 3367 c9 -21 48 -44 329 -201 l55 -30 -22 29 c-12 18 -67 55
-135 92 -62 35 -141 79 -175 98 -58 32 -62 33 -52 12z"/>
<path d="M4356 3246 c-33 -22 -61 -46 -63 -52 -3 -10 31 -63 144 -228 18 -26
33 -44 33 -40 1 29 -44 350 -49 355 -3 4 -33 -12 -65 -35z"/>
<path d="M4750 3207 c0 -10 121 -182 128 -182 4 0 28 13 54 30 l47 29 -37 21
c-112 63 -192 106 -192 102z"/>
<path d="M4503 3180 c3 -14 16 -103 29 -197 16 -120 27 -173 35 -173 17 0 16
40 -1 159 -8 53 -17 116 -21 141 -3 25 -15 56 -26 70 l-21 25 5 -25z"/>
<path d="M4584 3045 c3 -27 8 -80 12 -116 9 -94 13 -97 68 -60 l46 32 -18 27
c-9 15 -39 58 -66 97 l-48 70 6 -50z"/>
<path d="M1864 2082 c-23 -15 -34 -53 -34 -120 0 -55 4 -75 20 -95 20 -25 27
-26 123 -29 l102 -3 3 -66 c2 -46 -1 -69 -11 -77 -7 -6 -61 -13 -122 -14 -96
-3 -110 -5 -113 -21 -8 -40 14 -47 140 -47 169 0 168 -1 168 150 0 149 1 148
-135 152 l-100 3 0 50 0 50 104 5 c109 5 132 16 118 54 -5 14 -25 16 -129 16
-68 0 -128 -4 -134 -8z"/>
<path d="M2396 2068 c-8 -13 -52 -112 -97 -221 -65 -155 -81 -202 -72 -215 20
-33 47 -20 72 36 l25 52 100 0 101 0 25 -53 c26 -54 53 -68 73 -36 8 12 0 41
-31 115 -143 348 -141 344 -168 344 -7 0 -20 -10 -28 -22z m69 -204 c13 -32
21 -62 19 -66 -7 -11 -112 -10 -119 2 -3 5 8 39 25 76 35 77 39 76 75 -12z"/>
<path d="M2721 2064 c-17 -22 -21 -41 -21 -99 0 -109 11 -119 142 -125 l103
-5 3 -66 c2 -46 -1 -69 -11 -77 -7 -6 -61 -13 -122 -14 -96 -3 -110 -5 -113
-21 -8 -40 14 -47 145 -47 118 0 125 1 148 25 23 22 25 31 25 128 0 139 -6
145 -145 149 l-100 3 0 50 0 50 90 2 c125 4 137 8 133 41 l-3 27 -127 3 -126
3 -21 -27z"/>
<path d="M3273 2078 c-6 -7 -38 -80 -73 -163 -34 -82 -74 -176 -88 -209 -19
-43 -23 -62 -15 -75 20 -32 47 -19 73 36 l25 53 102 0 101 0 17 -45 c10 -25
24 -50 31 -56 19 -15 54 -1 54 22 0 24 -159 408 -178 432 -18 20 -36 22 -49 5z
m60 -206 c15 -37 27 -71 27 -75 0 -10 -118 -9 -124 2 -7 11 51 141 63 141 4 0
20 -30 34 -68z"/>
<path d="M3582 2078 c-9 -9 -12 -70 -12 -230 0 -211 1 -218 21 -229 40 -21 49
4 53 149 2 73 6 135 8 137 2 2 29 -34 59 -81 142 -225 144 -227 173 -199 14
14 16 47 16 229 0 219 -3 236 -42 236 -31 0 -39 -35 -37 -161 0 -66 -1 -122
-4 -125 -3 -3 -45 59 -94 138 -90 142 -112 165 -141 136z"/>
<path d="M4149 2078 c-8 -7 -31 -51 -51 -98 -140 -337 -141 -339 -128 -355 25
-30 49 -18 75 40 l24 55 99 0 100 0 26 -56 c22 -46 30 -55 49 -52 15 2 23 11
25 28 4 34 -169 444 -189 448 -8 1 -21 -3 -30 -10z m55 -203 c14 -36 26 -70
26 -75 0 -10 -112 -14 -122 -4 -4 3 4 29 16 57 13 29 26 60 29 70 11 31 24 18
51 -48z"/>
<path d="M1832 1473 l3 -68 75 0 75 0 3 38 3 37 -40 0 c-23 0 -41 -4 -41 -10
0 -5 14 -10 30 -10 20 0 30 -5 30 -15 0 -12 -13 -15 -60 -15 l-60 0 0 46 0 46
70 -4 c52 -3 70 0 70 9 0 10 -22 13 -80 13 l-81 0 3 -67z"/>
<path d="M2080 1481 c0 -74 10 -83 92 -79 l63 3 3 68 c2 55 0 67 -13 67 -12 0
-15 -12 -15 -55 l0 -55 -50 0 -50 0 0 55 c0 42 -3 55 -15 55 -12 0 -15 -13
-15 -59z"/>
<path d="M2332 1473 l3 -68 68 0 c81 0 91 19 12 23 -47 3 -55 6 -55 22 0 16 7
20 36 20 21 0 33 4 29 10 -3 6 -20 10 -36 10 -24 0 -30 4 -27 18 2 13 17 18
63 23 l60 6 -78 1 -78 2 3 -67z"/>
<path d="M2560 1506 c0 -39 11 -46 76 -46 34 0 44 -4 44 -16 0 -14 -10 -16
-65 -12 -55 3 -65 2 -63 -12 2 -11 19 -16 66 -18 75 -4 94 8 90 52 -3 31 -4
31 -65 34 -47 2 -63 7 -63 17 0 20 44 29 81 16 32 -11 54 -7 44 10 -4 5 -37 9
-76 9 l-69 0 0 -34z"/>
<path d="M2765 1530 c3 -5 19 -10 36 -10 29 0 29 0 29 -61 0 -81 24 -77 28 4
3 56 4 57 32 57 17 0 30 5 30 10 0 6 -34 10 -81 10 -51 0 -78 -4 -74 -10z"/>
<path d="M3220 1470 c0 -70 16 -98 22 -37 3 32 3 32 58 32 55 0 55 0 58 -33 6
-59 27 -30 30 41 2 55 0 67 -13 67 -9 0 -15 -9 -15 -25 0 -25 -2 -26 -57 -23
-51 3 -58 6 -61 26 -7 50 -22 18 -22 -48z"/>
<path d="M3477 1534 c-12 -12 -8 -109 5 -122 14 -14 136 -16 156 -3 9 5 12 26
10 67 l-3 59 -80 3 c-45 1 -84 0 -88 -4z m143 -59 l0 -45 -60 0 -60 0 0 45 0
45 60 0 60 0 0 -45z"/>
<path d="M3730 1482 c0 -32 5 -63 12 -70 7 -7 39 -12 75 -12 73 0 83 10 83 89
0 39 -4 51 -15 51 -10 0 -16 -11 -17 -32 0 -18 -2 -37 -3 -43 -2 -5 -3 -16 -4
-22 -1 -9 -18 -13 -51 -13 l-50 0 0 55 c0 42 -3 55 -15 55 -12 0 -15 -13 -15
-58z"/>
<path d="M3990 1507 c0 -40 11 -47 76 -47 34 0 44 -4 44 -16 0 -14 -10 -16
-65 -12 -46 3 -65 0 -65 -8 0 -17 24 -24 83 -24 67 0 79 9 75 51 l-3 34 -63 3
c-53 3 -63 6 -60 20 3 13 13 17 43 16 22 -1 47 -3 55 -5 8 -2 17 1 20 6 3 6
-23 11 -67 13 l-73 3 0 -34z"/>
<path d="M4222 1473 l3 -68 73 -3 c57 -2 73 0 70 10 -3 8 -26 14 -61 16 -49 3
-57 6 -57 22 0 16 7 20 35 20 19 0 35 5 35 10 0 6 -16 10 -36 10 -28 0 -35 3
-32 18 2 13 17 18 63 23 l60 6 -78 1 -78 2 3 -67z"/>
<path d="M4859 1323 c-11 -13 -15 -94 -19 -392 l-5 -376 -1052 -3 -1052 -2
-20 -26 c-20 -25 -21 -40 -21 -214 0 -174 1 -189 21 -214 25 -32 70 -35 99 -6
18 18 20 33 20 170 l0 150 1003 -2 1002 -3 5 -153 c4 -137 7 -155 24 -168 29
-20 70 -17 92 7 18 20 19 47 22 608 2 584 2 588 -18 614 -25 32 -79 37 -101
10z"/>
<path d="M3085 1319 c-4 -6 -5 -12 -2 -15 2 -3 7 2 10 11 7 17 1 20 -8 4z"/>
<path d="M3252 1270 c0 -19 2 -27 5 -17 2 9 2 25 0 35 -3 9 -5 1 -5 -18z"/>
<path d="M1563 1038 c-23 -5 -47 -16 -55 -25 -12 -15 -11 -15 18 0 17 9 45 15
63 15 17 -1 37 4 43 10 13 13 -3 13 -69 0z"/>
<path d="M1724 1041 c4 -5 31 -15 61 -22 48 -11 53 -14 44 -30 -5 -11 -17 -19
-26 -19 -9 0 -14 -2 -11 -5 3 -4 18 -3 32 1 22 5 26 11 24 32 -3 27 -13 31
-91 46 -25 5 -37 4 -33 -3z"/>
<path d="M4445 1026 c-71 -32 -115 -100 -115 -179 0 -171 194 -255 321 -140
99 89 79 247 -40 310 -50 26 -119 30 -166 9z"/>
<path d="M3012 1015 c-121 -37 -216 -166 -229 -307 l-6 -58 732 0 731 0 0 190
0 190 -592 -1 c-468 0 -602 -3 -636 -14z"/>
<path d="M1516 990 c-25 -8 -11 -17 39 -24 22 -3 31 -3 20 0 -11 3 -25 11 -30
18 -6 8 -18 10 -29 6z"/>
<path d="M1221 973 c0 -12 -4 -30 -7 -40 -5 -17 -5 -17 6 0 6 10 9 28 7 40 -4
22 -4 22 -6 0z"/>
<path d="M1191 965 c-1 -11 -4 -31 -6 -45 l-6 -25 11 25 c6 13 9 33 7 45 -4
19 -4 19 -6 0z"/>
<path d="M1490 926 c0 -23 -5 -47 -12 -54 -9 -9 -9 -12 0 -12 7 0 12 4 12 10
0 6 9 6 24 0 47 -17 193 -23 274 -10 l80 12 4 48 3 47 -35 -16 c-51 -23 -272
-22 -317 1 l-33 16 0 -42z m70 -10 c0 -2 -9 -6 -20 -9 -11 -3 -18 -1 -14 4 5
9 34 13 34 5z m260 0 c0 -2 -8 -10 -17 -17 -16 -13 -17 -12 -4 4 13 16 21 21
21 13z"/>
<path d="M1723 953 c9 -2 23 -2 30 0 6 3 -1 5 -18 5 -16 0 -22 -2 -12 -5z"/>
<path d="M1098 835 c-2 -19 0 -39 5 -44 6 -6 0 -14 -13 -21 -20 -11 -22 -10
-17 4 3 8 2 18 -4 21 -5 4 -12 -8 -16 -25 -3 -18 -12 -34 -19 -37 -8 -3 -14
-19 -14 -37 0 -26 7 -36 41 -58 50 -32 106 -42 199 -36 69 5 135 31 153 60 16
25 -1 68 -37 88 -28 17 -32 24 -28 50 4 30 3 31 -24 23 -40 -11 -165 -9 -186
2 -11 7 15 10 85 10 56 0 110 5 119 10 12 7 -18 9 -100 8 -64 -1 -122 3 -128
8 -8 7 -13 -1 -16 -26z m255 -94 c15 -13 27 -32 27 -41 0 -77 -240 -97 -300
-25 -17 20 -7 29 18 16 21 -11 62 -15 62 -6 0 3 -7 17 -16 31 -16 23 -18 24
-35 8 -28 -25 -37 -7 -9 19 21 20 34 22 124 22 93 0 103 -2 129 -24z"/>
<path d="M1311 714 c-10 -22 -9 -29 1 -35 36 -23 61 13 30 43 -18 18 -19 18
-31 -8z"/>
<path d="M1181 669 c13 -8 88 -14 78 -5 -2 2 -24 6 -48 9 -29 4 -40 2 -30 -4z"/>
<path d="M1956 813 c-6 -14 -5 -15 5 -6 7 7 10 15 7 18 -3 3 -9 -2 -12 -12z"/>
<path d="M1896 795 c-11 -8 -15 -15 -9 -15 6 0 16 7 23 15 16 19 11 19 -14 0z"/>
<path d="M1511 784 c0 -11 3 -14 6 -6 3 7 2 16 -1 19 -3 4 -6 -2 -5 -13z"/>
<path d="M1890 740 c-8 -5 -12 -12 -9 -15 4 -3 12 1 19 10 14 17 11 19 -10 5z"/>
<path d="M1488 647 c16 -19 77 -41 95 -34 7 3 4 6 -6 6 -10 1 -37 11 -60 22
-31 16 -38 18 -29 6z"/>
<path d="M1825 637 c-27 -15 -68 -23 -135 -27 -95 -7 -95 -7 -23 -8 87 -2 159
12 193 38 32 25 16 23 -35 -3z"/>
</g>
</svg>
